<svg width="55" height="55" viewBox="0 0 55 55" fill="none" xmlns="http://www.w3.org/2000/svg">
<circle cx="27.5" cy="27.5" r="27.5" fill="#E5EBE9"/>
<path fill-rule="evenodd" clip-rule="evenodd" d="M14.8571 12C13.2785 12 12 13.2786 12 14.8571V34.8571C12 36.4357 13.2785 37.7143 14.8571 37.7143H17.7281C18.5095 37.7143 19.1427 37.0811 19.1427 36.2997V36.2718C19.1427 35.4903 18.5095 34.8571 17.7281 34.8571H14.8571V19.1429H34.8567V26.8465C34.8567 27.4751 35.2665 28.0469 35.8751 28.2026C35.8851 28.2054 35.893 28.2095 35.903 28.2109C36.8158 28.4467 37.7138 27.7978 37.7138 26.8549V14.8571C37.7138 13.2786 36.4352 12 34.8567 12H14.8571ZM18.4284 23.4286C18.0342 23.4286 17.7142 23.7486 17.7142 24.1429V25.5714C17.7142 25.9657 18.0342 26.2857 18.4284 26.2857H19.857C20.2513 26.2857 20.5713 25.9657 20.5713 25.5714V24.1429C20.5713 23.7486 20.2513 23.4286 19.857 23.4286H18.4284ZM24.1426 23.4286C23.7483 23.4286 23.4284 23.7486 23.4284 24.1429V25.5714C23.4284 25.9657 23.7483 26.2857 24.1426 26.2857H31.2853C31.6796 26.2857 31.9996 25.9657 31.9996 25.5714V24.1429C31.9996 23.7486 31.6796 23.4286 31.2853 23.4286H24.1426ZM18.4284 29.1429C18.0342 29.1429 17.7142 29.4629 17.7142 29.8571V31.2857C17.7142 31.68 18.0342 32 18.4284 32H19.857C20.2513 32 20.5713 31.68 20.5713 31.2857V29.8571C20.5713 29.4629 20.2513 29.1429 19.857 29.1429H18.4284ZM31.9996 30.5714C26.0769 30.5714 23.1171 34.237 22.1728 35.697C21.9414 36.0556 21.9414 36.5159 22.1728 36.8744C23.1171 38.3344 26.0769 42 31.9996 42C37.9224 42 40.8822 38.3344 41.8264 36.8744C42.0579 36.5159 42.0579 36.0556 41.8264 35.697C40.8822 34.237 37.9224 30.5714 31.9996 30.5714ZM31.9996 33.4286C33.5767 33.4286 34.8567 34.7086 34.8567 36.2857C34.8567 37.8629 33.5767 39.1429 31.9996 39.1429C30.4225 39.1429 29.1425 37.8629 29.1425 36.2857C29.1425 34.7086 30.4225 33.4286 31.9996 33.4286Z" fill="url(#paint0_linear_101_296)"/>
<defs>
<linearGradient id="paint0_linear_101_296" x1="-3" y1="27" x2="27" y2="57" gradientUnits="userSpaceOnUse">
<stop stop-color="#3087FB"/>
<stop offset="1" stop-color="#333DBD"/>
</linearGradient>
</defs>
</svg>
