<svg width="55" height="55" viewBox="0 0 55 55" fill="none" xmlns="http://www.w3.org/2000/svg">
<circle cx="27.5" cy="27.5" r="27.5" fill="#E5EBE9"/>
<path fill-rule="evenodd" clip-rule="evenodd" d="M27.5 17C25.0032 17 22.9792 18.9588 22.9792 21.375C22.9792 23.7912 25.0032 25.75 27.5 25.75C29.9968 25.75 32.0208 23.7912 32.0208 21.375C32.0208 18.9588 29.9968 17 27.5 17ZM17.8125 20.75C16.0291 20.75 14.5833 22.1491 14.5833 23.875C14.5833 25.6009 16.0291 27 17.8125 27C18.6689 27 19.4903 26.6708 20.0959 26.0847C20.7015 25.4987 21.0417 24.7038 21.0417 23.875C21.0417 23.0462 20.7015 22.2513 20.0959 21.6653C19.4903 21.0792 18.6689 20.75 17.8125 20.75ZM37.1875 20.75C35.4041 20.75 33.9583 22.1491 33.9583 23.875C33.9583 25.6009 35.4041 27 37.1875 27C38.0439 27 38.8653 26.6708 39.4709 26.0847C40.0765 25.4987 40.4167 24.7038 40.4167 23.875C40.4167 22.1491 38.9709 20.75 37.1875 20.75ZM27.5 28.25C24.4827 28.25 18.4583 29.7162 18.4583 32.625V35.75C18.4583 36.44 19.037 37 19.75 37H35.25C35.963 37 36.5417 36.44 36.5417 35.75V32.625C36.5417 29.7162 30.5173 28.25 27.5 28.25ZM17.0355 29.5659C14.9934 29.8709 12 31.2363 12 32.8813V35.75C12 36.44 12.5787 37 13.2917 37H15.875V32.625C15.875 31.4238 16.3212 30.4159 17.0355 29.5659ZM37.9645 29.5659C38.6788 30.4159 39.125 31.4238 39.125 32.625V37H41.7083C42.4213 37 43 36.44 43 35.75V32.8813C43 31.2363 40.0066 29.8709 37.9645 29.5659Z" fill="url(#paint0_linear_101_294)"/>
<defs>
<linearGradient id="paint0_linear_101_294" x1="-3.5" y1="27" x2="14.7219" y2="55.2439" gradientUnits="userSpaceOnUse">
<stop stop-color="#3087FB"/>
<stop offset="1" stop-color="#333DBD"/>
</linearGradient>
</defs>
</svg>
