<svg width="55" height="55" viewBox="0 0 55 55" fill="none" xmlns="http://www.w3.org/2000/svg">
<circle cx="27.5" cy="27.5" r="27.5" fill="#E5EBE9"/>
<path fill-rule="evenodd" clip-rule="evenodd" d="M37.9398 16C37.2993 16 36.7144 16.3541 36.427 16.9115L35.5263 18.6667L26.7759 22.3203C26.2723 22.531 25.9474 23.0109 25.9474 23.5443V32.4531C25.9474 32.9865 26.2723 33.4704 26.7759 33.6797L35.5263 37.3333L36.427 39.0885C36.7144 39.6459 37.2993 40 37.9398 40C38.8744 40 39.6316 39.2622 39.6316 38.3516V30.3047C40.4769 29.8292 40.9983 28.951 41 28C40.9992 27.048 40.4777 26.1687 39.6316 25.6927V17.6484C39.6316 16.7378 38.8744 16 37.9398 16ZM17.7368 22.6667C16.2316 22.6667 15 23.8667 15 25.3333V30.6667C15 32.1333 16.2316 33.3333 17.7368 33.3333H20.4737V38.6667C20.4737 39.4027 21.0867 40 21.8421 40C22.5975 40 23.2105 39.4027 23.2105 38.6667V30.6667V24C23.2105 23.264 22.5975 22.6667 21.8421 22.6667H17.7368Z" fill="url(#paint0_linear_101_295)"/>
<defs>
<linearGradient id="paint0_linear_101_295" x1="2" y1="28" x2="25.9233" y2="53.9169" gradientUnits="userSpaceOnUse">
<stop stop-color="#3087FB"/>
<stop offset="1" stop-color="#333DBD"/>
</linearGradient>
</defs>
</svg>
