<svg width="55" height="55" viewBox="0 0 55 55" fill="none" xmlns="http://www.w3.org/2000/svg">
<circle cx="27.5" cy="27.5" r="27.5" fill="#E5EBE9"/>
<path fill-rule="evenodd" clip-rule="evenodd" d="M21.3768 15C19.3369 15 17.7405 16.6463 17.7405 18.7473C17.7405 20.8483 19.3369 22.4947 21.3768 22.4947C23.4168 22.4947 25.0132 20.8483 25.0132 18.7473C25.0132 16.6463 23.4168 15 21.3768 15ZM33.498 15C31.458 15 29.8616 16.6463 29.8616 18.7473C29.8616 20.8483 31.458 22.4947 33.498 22.4947C35.5379 22.4947 37.1343 20.8483 37.1343 18.7473C37.1343 16.6463 35.5379 15 33.498 15ZM21.2727 24.9929C16.9915 24.9929 14 26.6452 14 29.011V31.2384C14 31.9279 14.543 32.4875 15.2121 32.4875H22.4848C23.1539 32.4875 23.6969 31.9279 23.6969 31.2384V29.011C23.6969 27.6682 24.1695 26.4834 25.0132 25.4979C23.9453 25.1744 22.6799 24.9929 21.2727 24.9929ZM33.498 24.9929C29.2168 24.9929 26.2253 26.6452 26.2253 29.011V31.2384C26.2253 31.9279 26.7683 32.4875 27.4374 32.4875H32.2858C32.9549 32.4875 33.498 31.9279 33.498 31.2384V29.9893C33.498 28.6153 34.5889 27.4911 35.9222 27.4911H40.3019C40.0304 27.0677 39.6154 26.6282 38.9572 26.2322C37.6481 25.4453 35.6579 24.9929 33.498 24.9929ZM37.1154 29.9722C36.4469 29.983 35.913 30.5495 35.9222 31.2384V33.7367H33.498C33.0608 33.7303 32.6542 33.967 32.4339 34.3561C32.2135 34.7452 32.2135 35.2264 32.4339 35.6155C32.6542 36.0046 33.0608 36.2412 33.498 36.2349H35.9222V38.7331C35.916 39.1836 36.1457 39.6026 36.5232 39.8297C36.9008 40.0568 37.3678 40.0568 37.7453 39.8297C38.1229 39.6026 38.3526 39.1836 38.3464 38.7331V36.2349H40.7706C41.2078 36.2412 41.6144 36.0046 41.8347 35.6155C42.0551 35.2264 42.0551 34.7452 41.8347 34.3561C41.6144 33.967 41.2078 33.7303 40.7706 33.7367H38.3464V31.2384C38.3509 30.9008 38.2226 30.5757 37.9906 30.3371C37.7587 30.0986 37.443 29.967 37.1154 29.9722Z" fill="url(#paint0_linear_101_298)"/>
<defs>
<linearGradient id="paint0_linear_101_298" x1="0" y1="27.5" x2="24.8403" y2="55.3211" gradientUnits="userSpaceOnUse">
<stop stop-color="#3087FB"/>
<stop offset="1" stop-color="#333DBD"/>
</linearGradient>
</defs>
</svg>
