<svg width="55" height="55" viewBox="0 0 55 55" fill="none" xmlns="http://www.w3.org/2000/svg">
<circle cx="27.5" cy="27.5" r="27.5" fill="#E5EBE9"/>
<path fill-rule="evenodd" clip-rule="evenodd" d="M36.4444 16.6H31.0982C30.5705 15.0881 29.1662 14 27.5 14C25.8338 14 24.4295 15.0881 23.9018 16.6H18.5556C17.1436 16.6 16 17.7635 16 19.2V37.4C16 38.8365 17.1436 40 18.5556 40H36.4444C37.8564 40 39 38.8365 39 37.4V19.2C39 17.7635 37.8564 16.6 36.4444 16.6ZM27.5 16.6C28.2053 16.6 28.7778 17.1824 28.7778 17.9C28.7778 18.6176 28.2053 19.2 27.5 19.2C26.7947 19.2 26.2222 18.6176 26.2222 17.9C26.2222 17.1824 26.7947 16.6 27.5 16.6ZM25.3188 33.1191L21.7794 29.5181C21.2811 29.0111 21.2811 28.1869 21.7794 27.6799C22.2777 27.1729 23.0878 27.1729 23.5862 27.6799L26.2222 30.3618L32.7197 23.7513C33.2181 23.2443 34.0282 23.2443 34.5265 23.7513C35.0248 24.2583 35.0248 25.0825 34.5265 25.5895L27.1256 33.1191C26.6273 33.6261 25.8172 33.6261 25.3188 33.1191Z" fill="url(#paint0_linear_101_297)"/>
<defs>
<linearGradient id="paint0_linear_101_297" x1="4.5" y1="27" x2="30.3058" y2="49.8282" gradientUnits="userSpaceOnUse">
<stop stop-color="#3087FB"/>
<stop offset="1" stop-color="#333DBD"/>
</linearGradient>
</defs>
</svg>
