<svg width="40" height="40" viewBox="0 0 40 40" fill="none" xmlns="http://www.w3.org/2000/svg">
<circle cx="20" cy="20" r="20" fill="url(#paint0_linear_0_434)"/>
<path fill-rule="evenodd" clip-rule="evenodd" d="M10 14C10 12.895 10.895 12 12 12H28C29.105 12 30 12.895 30 14C30 14.552 29.552 15 29 15H11C10.448 15 10 14.552 10 14ZM10 19C10 18.448 10.448 18 11 18H29C29.552 18 30 18.448 30 19V26C30 27.105 29.105 28 28 28H12C10.895 28 10 27.105 10 26V19Z" fill="white"/>
<defs>
<linearGradient id="paint0_linear_0_434" x1="-20" y1="20" x2="20" y2="60" gradientUnits="userSpaceOnUse">
<stop stop-color="#3087FB"/>
<stop offset="1" stop-color="#333DBD"/>
</linearGradient>
</defs>
</svg>
