<svg width="40" height="40" viewBox="0 0 40 40" fill="none" xmlns="http://www.w3.org/2000/svg">
<circle cx="20" cy="20" r="20" fill="url(#paint0_linear_0_442)"/>
<path fill-rule="evenodd" clip-rule="evenodd" d="M12 18C12 13.582 15.582 10 20 10C24.418 10 28 13.582 28 18C28 22.0786 24.9451 25.4386 21 25.9316V27.8027C21.675 27.4094 22.6221 27 23.6953 27C24.9473 27 26.0537 27.565 26.7227 28.002C27.0927 28.244 27.0927 28.756 26.7227 28.998C26.0537 29.434 24.9473 30 23.6953 30C22.4277 30 21.3647 29.4385 20.6992 29H19.3008C18.6353 29.4385 17.5723 30 16.3047 30C15.0527 30 13.9463 29.435 13.2773 28.998C12.9073 28.756 12.9073 28.244 13.2773 28.002C13.9463 27.566 15.0527 27 16.3047 27C17.3779 27 18.325 27.4094 19 27.8027V25.9316C15.0549 25.4386 12 22.0786 12 18ZM20.2207 11.5996H20.2148C19.9378 11.5996 19.7129 11.8246 19.7129 12.1016V13.0293C19.3739 13.0723 17.4766 13.4288 17.4766 15.7188C17.4766 17.5577 18.5245 18.0851 19.4668 18.5594C20.2364 18.9468 20.9355 19.2987 20.9355 20.3008C20.9355 21.4168 20.2134 21.4434 20.0664 21.4434C20.0621 21.4434 20.0569 21.4434 20.0511 21.4435C19.902 21.4456 19.2815 21.4545 19.1016 20.4336C19.0366 20.0626 18.6885 19.8066 18.3105 19.8066H18.0488C17.5538 19.8066 17.1511 20.2513 17.2461 20.7363C17.6328 22.7081 19.2293 22.9242 19.5532 22.9681C19.5602 22.969 19.5665 22.9699 19.5723 22.9707V23.8008C19.5723 24.0778 19.7972 24.3008 20.0742 24.3008C20.3512 24.3008 20.5742 24.0778 20.5742 23.8008V22.9707C20.9122 22.9287 22.8242 22.6132 22.8242 20.2852C22.8242 18.4881 21.7371 17.8915 20.7821 17.3674C20.0339 16.9568 19.3667 16.5907 19.3672 15.7266C19.3672 14.5996 19.9871 14.5645 20.1211 14.5645C20.3171 14.5645 20.7297 14.7049 20.8867 15.4629C20.9677 15.8569 21.2855 16.1543 21.6875 16.1543H21.9453C22.4693 16.1543 22.8503 15.6604 22.7363 15.1484C22.3513 13.4154 20.9967 13.1096 20.7227 13.0566V12.1016C20.7227 11.8246 20.4977 11.5996 20.2207 11.5996Z" fill="white"/>
<defs>
<linearGradient id="paint0_linear_0_442" x1="-20" y1="20" x2="20" y2="60" gradientUnits="userSpaceOnUse">
<stop stop-color="#3087FB"/>
<stop offset="1" stop-color="#333DBD"/>
</linearGradient>
</defs>
</svg>
