<svg width="52" height="52" viewBox="0 0 52 52" fill="none" xmlns="http://www.w3.org/2000/svg">
<path d="M52 26C52 40.3585 40.3585 52 26 52C11.6415 52 0 40.3585 0 26C0 11.6415 11.6415 0 26 0C40.3585 0 52 11.6415 52 26Z" fill="url(#paint0_linear_0_181)"/>
<path opacity="0.05" d="M7.95464 25.3058C18.5561 20.5023 31.0075 15.2906 32.925 14.5366C37.1526 12.8739 38.996 14.573 38.7074 17.2835C38.3525 20.605 36.6703 30.2705 35.6355 37.1956C35.0297 41.2477 32.8353 42.4892 30.3588 40.9175C28.4803 39.7254 22.0219 35.4965 20.3228 34.0509C19.1645 33.0655 18.3572 31.9605 19.1788 30.8347C19.4193 30.5058 20.0342 29.8428 20.3761 29.5126C22.0908 27.8512 21.8594 27.4937 19.7859 28.977C19.5389 29.1538 18.1063 30.1925 17.5174 30.5851C16.0744 31.5471 14.7471 31.5991 12.4968 30.8347C10.656 30.2094 8.88804 29.7271 7.77264 29.2448C6.23214 28.5779 5.64194 26.3536 7.95464 25.3058Z" fill="black"/>
<path opacity="0.07" d="M8.88685 25.4683C18.7304 21.0678 30.836 16.0251 32.6066 15.3114C36.8498 13.598 38.4111 14.6146 37.9548 17.9257C37.531 20.9911 36.0269 30.4759 34.9726 36.8342C34.3512 40.5769 32.5364 41.4011 30.173 39.8723C28.6923 38.9181 22.7331 34.9921 21.2875 33.8494C20.1695 32.9667 19.0112 31.9475 20.3645 30.472C20.8169 29.9793 23.3155 27.5678 25.1836 25.7738C26.2665 24.7325 25.8804 24.219 24.5739 25.1134C22.178 26.7553 18.2585 29.354 17.5591 29.8259C16.2266 30.7229 14.9747 30.9387 12.7959 30.2536C11.0786 29.7128 9.41985 29.1889 8.55535 28.8522C6.62355 28.1034 6.59755 26.4914 8.88685 25.4683Z" fill="black"/>
<path d="M9.81894 25.6321C18.9059 21.6346 30.6644 16.7609 32.2881 16.0862C36.5456 14.3208 37.8521 14.6588 37.2008 18.5692C36.7328 21.3798 35.3834 30.6839 34.307 36.4754C33.6687 39.91 32.2361 40.3169 29.9845 38.831C28.9016 38.116 23.4351 34.5007 22.2482 33.6518C21.1653 32.8783 19.6716 31.9475 21.5449 30.1145C22.2118 29.4619 26.5811 25.2889 29.9858 22.0415C30.4317 21.6151 29.8714 20.9144 29.3566 21.2563C24.7676 24.2996 18.4054 28.5233 17.5955 29.0732C16.3722 29.9039 15.197 30.2848 13.0884 29.679C11.4946 29.2214 9.93854 28.6754 9.33274 28.4674C6.99924 27.6666 7.55304 26.6292 9.81894 25.6321Z" fill="white"/>
<defs>
<linearGradient id="paint0_linear_0_181" x1="-10.7692" y1="26" x2="26" y2="62.7692" gradientUnits="userSpaceOnUse">
<stop stop-color="#33BEF0"/>
<stop offset="1" stop-color="#0A85D9"/>
</linearGradient>
</defs>
</svg>
