<svg width="36" height="36" viewBox="0 0 36 36" fill="none" xmlns="http://www.w3.org/2000/svg">
<path d="M36 18C36 27.9405 27.9405 36 18 36C8.0595 36 0 27.9405 0 18C0 8.0595 8.0595 0 18 0C27.9405 0 36 8.0595 36 18Z" fill="url(#paint0_linear_0_1258)"/>
<path opacity="0.05" d="M5.50705 17.5194C12.8465 14.1939 21.4668 10.5858 22.7943 10.0638C25.7211 8.91266 26.9972 10.089 26.7974 11.9655C26.5517 14.265 25.3871 20.9565 24.6707 25.7508C24.2514 28.5561 22.7322 29.4156 21.0177 28.3275C19.7172 27.5022 15.2459 24.5745 14.0696 23.5737C13.2677 22.8915 12.7088 22.1265 13.2776 21.3471C13.4441 21.1194 13.8699 20.6604 14.1066 20.4318C15.2937 19.2816 15.1335 19.0341 13.698 20.061C13.527 20.1834 12.5351 20.9025 12.1274 21.1743C11.1284 21.8403 10.2095 21.8763 8.65165 21.3471C7.37725 20.9142 6.15325 20.5803 5.38105 20.2464C4.31455 19.7847 3.90595 18.2448 5.50705 17.5194Z" fill="black"/>
<path opacity="0.07" d="M6.15248 17.6319C12.9673 14.5854 21.3481 11.0943 22.5739 10.6002C25.5115 9.41395 26.5924 10.1178 26.2765 12.4101C25.9831 14.5323 24.9418 21.0987 24.2119 25.5006C23.7817 28.0917 22.5253 28.6623 20.8891 27.6039C19.864 26.9433 15.7384 24.2253 14.7376 23.4342C13.9636 22.8231 13.1617 22.1175 14.0986 21.096C14.4118 20.7549 16.1416 19.0854 17.4349 17.8434C18.1846 17.1225 17.9173 16.767 17.0128 17.3862C15.3541 18.5229 12.6406 20.322 12.1564 20.6487C11.2339 21.2697 10.3672 21.4191 8.85878 20.9448C7.66988 20.5704 6.52148 20.2077 5.92298 19.9746C4.58558 19.4562 4.56758 18.3402 6.15248 17.6319Z" fill="black"/>
<path d="M6.7979 17.7453C13.0889 14.9778 21.2294 11.6037 22.3535 11.1366C25.301 9.91444 26.2055 10.1484 25.7546 12.8556C25.4306 14.8014 24.4964 21.2427 23.7512 25.2522C23.3093 27.63 22.3175 27.9117 20.7587 26.883C20.009 26.388 16.2245 23.8851 15.4028 23.2974C14.6531 22.7619 13.619 22.1175 14.9159 20.8485C15.3776 20.3967 18.4025 17.5077 20.7596 15.2595C21.0683 14.9643 20.6804 14.4792 20.324 14.7159C17.147 16.8228 12.7424 19.7469 12.1817 20.1276C11.3348 20.7027 10.5212 20.9664 9.0614 20.547C7.958 20.2302 6.8807 19.8522 6.4613 19.7082C4.8458 19.1538 5.2292 18.4356 6.7979 17.7453Z" fill="white"/>
<defs>
<linearGradient id="paint0_linear_0_1258" x1="-7.4556" y1="18" x2="18" y2="43.4556" gradientUnits="userSpaceOnUse">
<stop stop-color="#33BEF0"/>
<stop offset="1" stop-color="#0A85D9"/>
</linearGradient>
</defs>
</svg>
