<svg width="41" height="42" viewBox="0 0 41 42" fill="none" xmlns="http://www.w3.org/2000/svg">
<path fill-rule="evenodd" clip-rule="evenodd" d="M0 20.647C0 9.32514 9.17816 0.146973 20.5 0.146973C31.8218 0.146973 41 9.32514 41 20.647C41 31.9688 31.8218 41.147 20.5 41.147C9.17816 41.147 0 31.9688 0 20.647ZM26.8591 31.0261L30.6987 11.422C30.6987 11.422 30.75 11.1657 30.75 10.9095C30.75 10.5251 30.4087 10.397 30.1094 10.397C29.6225 10.3959 28.9542 10.6358 28.9552 10.6368L7.10633 19.3165C7.10633 19.3165 6.15 19.622 6.15 20.2626C6.15 21.0313 7.07968 21.2999 7.07968 21.2999L12.302 22.6888L16.3713 24.7398L24.6882 31.6411C24.6882 31.6411 24.9926 31.922 25.583 31.922C26.6941 31.922 26.8591 31.0261 26.8591 31.0261Z" fill="white"/>
<path d="M19.4749 27.3146L15.9633 30.773C15.9633 30.773 15.8105 30.8909 15.6066 30.896C15.5358 30.898 15.46 30.8868 15.3821 30.8519L16.3702 24.7378L19.4749 27.3146Z" fill="#215EC1"/>
<path d="M26.5445 14.6979C26.3712 14.4724 26.0514 14.4314 25.8259 14.6025L12.3 22.697C12.3 22.697 14.4587 28.7363 14.7877 29.7818C15.1178 30.8283 15.3822 30.8529 15.3822 30.8529L16.3703 24.7388L26.4481 15.4154C26.6736 15.2442 26.7156 14.9234 26.5445 14.6979Z" fill="#2060C8"/>
</svg>
